<?xml version="1.0" standalone="no"?>
<!DOCTYPE svg PUBLIC "-//W3C//DTD SVG 20010904//EN"
 "http://www.w3.org/TR/2001/REC-SVG-20010904/DTD/svg10.dtd">
<svg version="1.0" xmlns="http://www.w3.org/2000/svg"
 width="80.000000pt" height="80.000000pt" viewBox="0 0 80.000000 80.000000"
 preserveAspectRatio="xMidYMid meet">
<metadata>
Created by potrace 1.10, written by Peter Selinger 2001-2011
</metadata>
<g transform="translate(0.000000,80.000000) scale(0.100000,-0.100000)"
fill="#000000" stroke="none">
<path d="M629 743 c-53 -8 -152 -68 -193 -116 -40 -48 -40 -49 -24 -75 37 -58
68 -122 68 -137 0 -20 38 -14 108 16 118 51 186 144 205 282 l6 37 -72 -1
c-40 -1 -84 -4 -98 -6z m133 -53 c-12 -81 -87 -176 -172 -220 -49 -25 -80 -23
-95 5 -5 11 -21 37 -33 58 -23 36 -23 39 -8 62 19 29 88 82 126 97 36 14 109
26 150 24 31 -1 35 -4 32 -26z"/>
<path d="M6 614 c15 -109 64 -191 146 -247 48 -32 81 -45 171 -62 l27 -5 0
-109 c0 -115 9 -141 49 -141 41 0 51 30 51 153 0 185 -24 261 -106 344 -67 66
-137 95 -250 101 l-93 5 5 -39z m228 -29 c81 -39 137 -102 165 -186 12 -38 18
-295 7 -306 -14 -15 -20 13 -21 103 -2 84 -4 97 -25 119 -13 14 -34 25 -46 25
-39 0 -134 41 -171 73 -59 52 -113 157 -99 192 8 22 128 10 190 -20z"/>
</g>
</svg>
